<svg version="1.1" id="Layer_1" xmlns="http://www.w3.org/2000/svg" xmlns:xlink="http://www.w3.org/1999/xlink" x="0px" y="0px"
	 width="100%" viewBox="0 0 1024 1024" enable-background="new 0 0 1024 1024" xml:space="preserve">
<path fill="#000000" opacity="1.000000" stroke="none" 
	d="
M329.804138,195.606110 
	C330.792542,191.751526 333.321289,190.448746 336.565125,190.189819 
	C338.388824,190.044235 340.225098,190.003433 342.055695,190.003616 
	C432.879059,190.012604 523.702454,190.040924 614.525818,190.043533 
	C647.368652,190.044479 679.339233,194.673767 709.100403,209.330109 
	C767.878601,238.276428 804.968262,284.800842 818.050903,349.017548 
	C831.253113,413.821136 816.754333,472.864258 776.768372,525.570923 
	C770.203674,534.224060 762.461609,541.818787 754.550720,549.228210 
	C753.349915,550.352905 751.940063,551.254395 750.689331,552.211365 
	C752.345764,554.763977 754.384644,555.223206 756.086853,556.122314 
	C787.302246,572.609985 804.966919,598.397095 807.235596,633.608093 
	C809.846375,674.130188 795.629211,709.036499 768.818237,739.033020 
	C747.556458,762.821045 721.228943,778.327148 690.315918,786.076294 
	C679.122253,788.882263 667.690125,790.089783 656.194031,790.113098 
	C605.533203,790.215820 554.872009,790.146118 504.210938,790.136841 
	C497.027344,790.135559 496.961884,790.176025 496.980774,797.327148 
	C496.996155,803.159668 497.156372,808.993103 497.088654,814.824280 
	C497.007477,821.816223 494.647308,824.190491 487.769043,824.192627 
	C411.944061,824.216492 336.119049,824.224609 260.294067,824.200256 
	C252.305237,824.197632 249.704834,821.598572 249.704178,813.769653 
	C249.689758,639.122009 249.690094,464.474335 249.703110,289.826660 
	C249.703583,283.368225 251.115784,281.738800 257.537567,281.639862 
	C268.522797,281.470551 279.513306,281.678375 290.500580,281.593964 
	C301.160797,281.512054 311.819366,281.238281 322.479279,281.094116 
	C329.126801,281.004211 329.637421,280.573669 329.648407,274.031738 
	C329.691986,248.035858 329.712646,222.039932 329.804138,195.606110 
M521.194397,554.619690 
	C528.731873,550.187500 536.807251,547.091858 545.388611,545.541016 
	C549.379395,544.819702 551.444092,543.157837 552.790833,539.059998 
	C566.012878,498.828308 604.363281,471.547913 646.782166,472.140198 
	C650.845276,472.196930 651.962219,471.049072 651.949402,467.185791 
	C651.824402,429.526733 652.179382,391.862762 651.699524,354.209076 
	C651.198547,314.895782 616.686157,282.703888 579.243469,282.967468 
	C499.262054,283.530518 419.274323,283.184692 339.289154,283.230225 
	C331.239044,283.234802 331.112061,283.369568 331.094238,291.298615 
	C331.025299,321.959076 330.943481,352.619690 330.956024,383.280182 
	C330.979034,439.602570 331.118225,495.925018 331.029419,552.247192 
	C331.022003,556.950867 332.446808,558.910400 337.117004,559.940857 
	C349.313477,562.632019 361.171661,566.604919 372.902405,570.891296 
	C407.543152,583.549072 438.459351,601.951172 463.218292,629.772583 
	C465.836426,632.714600 468.330048,635.767395 471.682129,639.710754 
	C473.749207,602.470398 489.200775,574.020020 521.194397,554.619690 
M584.311584,531.794250 
	C577.553650,541.541382 573.335876,552.367493 571.464355,563.998779 
	C570.784119,568.226440 569.135376,569.384033 565.026001,569.478271 
	C546.901062,569.893799 531.255493,576.559265 518.501526,589.457092 
	C503.633179,604.493103 497.494904,623.110352 497.418427,643.884583 
	C497.298767,676.377258 497.397491,708.870850 497.434204,741.364014 
	C497.436188,743.112793 497.009186,745.024536 498.734283,746.683167 
	C499.356140,746.115112 499.990295,745.620728 500.524872,745.035339 
	C522.965332,720.463257 551.194397,708.953491 584.094116,708.734741 
	C624.917114,708.463318 665.743225,708.708496 706.567871,708.628418 
	C716.269714,708.609375 725.763550,707.144348 734.948547,703.754456 
	C762.149780,693.715393 781.625549,667.276062 781.488464,638.727051 
	C781.344727,608.792297 761.444336,583.576111 734.031494,575.838806 
	C726.030090,573.580444 723.719971,570.144592 722.523315,562.489380 
	C717.805664,532.311462 693.594666,507.250336 663.837158,500.563416 
	C633.732422,493.798462 602.900635,505.743591 584.311584,531.794250 
M355.189697,640.133606 
	C372.204468,646.068909 388.724060,653.069580 404.244232,662.336853 
	C427.733002,676.362366 448.176178,693.592102 462.682495,717.163208 
	C463.460785,718.427795 464.993988,719.552063 464.202545,721.425781 
	C462.569336,721.385925 462.051422,720.200439 461.313110,719.358398 
	C454.475464,711.559631 446.758759,704.702026 438.533051,698.435913 
	C394.835724,665.148193 344.078857,648.761414 291.369354,637.039795 
	C287.074646,636.084778 286.436798,638.476135 286.424652,641.679749 
	C286.385468,652.007690 286.307800,662.337036 286.430450,672.663574 
	C286.536896,681.629089 284.358978,682.815125 296.157440,683.863159 
	C297.639801,683.994812 299.092682,684.431763 300.567780,684.675476 
	C337.580048,690.790833 374.035065,699.021423 408.798248,713.538879 
	C435.498047,724.688965 460.217072,738.790955 479.042236,761.502258 
	C479.430115,761.970215 479.873840,762.572754 480.656128,762.056396 
	C482.124817,754.619080 480.750763,747.122803 481.112030,739.658508 
	C481.677338,727.979797 481.031250,716.379333 478.080475,705.009338 
	C469.339111,671.326782 448.675995,646.026794 421.325287,625.803284 
	C389.638062,602.373230 353.561401,588.503967 315.675018,578.825867 
	C311.488861,577.756531 310.247253,579.283386 310.276184,583.233093 
	C310.371429,596.226013 310.482086,609.223022 310.235535,622.211853 
	C310.152100,626.606628 311.807037,628.475586 315.969482,629.301697 
	C329.040222,631.895874 341.751892,635.865112 355.189697,640.133606 
z"/>
<path fill="#000000" opacity="1.000000" stroke="none" 
	d="
M467.000061,363.669891 
	C493.995453,363.669312 520.490906,363.643158 546.986206,363.686066 
	C553.996704,363.697418 558.399597,367.853760 558.266785,374.212585 
	C558.160339,379.314850 555.441467,382.563080 550.730957,384.283661 
	C547.994934,385.282959 545.147888,385.116486 542.322388,385.117615 
	C494.664185,385.136597 447.005981,385.147156 399.347778,385.143097 
	C397.352417,385.142914 395.324402,385.181458 393.367706,384.860229 
	C387.252899,383.856506 383.224274,378.947235 383.794800,373.419739 
	C384.402863,367.529053 388.710815,363.689850 395.012421,363.679657 
	C418.841583,363.641144 442.670837,363.667816 467.000061,363.669891 
z"/>
<path fill="#000000" opacity="1.000000" stroke="none" 
	d="
M542.811035,441.939087 
	C493.898682,442.000763 445.462524,442.087769 397.026367,442.084167 
	C386.360687,442.083374 380.663696,434.140778 385.275238,425.985352 
	C387.713837,421.672760 391.745941,420.697662 396.343536,420.702667 
	C427.802216,420.736938 459.260986,420.704224 490.719727,420.710663 
	C509.029022,420.714417 527.338318,420.750122 545.647644,420.772858 
	C549.399475,420.777527 552.993591,421.253845 555.614197,424.367432 
	C561.090393,430.873871 557.699707,440.040649 549.249146,441.466156 
	C547.291382,441.796387 545.276062,441.785645 542.811035,441.939087 
z"/>
<path fill="#000000" opacity="1.000000" stroke="none" 
	d="
M514.664307,493.056091 
	C512.229797,498.255798 508.116333,500.092346 503.120209,500.096405 
	C467.292633,500.125366 431.464691,500.148621 395.637482,500.016541 
	C388.376984,499.989777 383.598450,495.327118 383.740051,489.229431 
	C383.893433,482.622742 388.501831,478.680603 396.214813,478.677582 
	C431.876068,478.663635 467.537354,478.659088 503.198608,478.687195 
	C512.706055,478.694702 516.328979,483.113129 514.664307,493.056091 
z"/>
</svg>